<svg xmlns="http://www.w3.org/2000/svg" viewBox="0 0 500 500"><defs><style>.cls-1{fill:#ff671d;}.cls-2{fill:#fff;}</style></defs><title>logo_C_orange</title><g id="Layer_2" data-name="Layer 2"><g id="Layer_1-2" data-name="Layer 1"><circle class="cls-1" cx="250" cy="250" r="250"/><path class="cls-2" d="M160,250.38a9,9,0,0,1-9,9H131.5a9,9,0,0,1-9-9v-.76a9,9,0,0,1,9-9H151a9,9,0,0,1,9,9Z"/><path class="cls-2" d="M253.75,250.38a9,9,0,0,1-9,9h-57a9,9,0,0,1-9-9v-.76a9,9,0,0,1,9-9h57a9,9,0,0,1,9,9Z"/><path class="cls-2" d="M178.75,198.45a9,9,0,0,1-9,9h-19.5a9,9,0,0,1-9-9v-.75a9,9,0,0,1,9-9h19.5a9,9,0,0,1,9,9Z"/><path class="cls-2" d="M272.88,198.45a9,9,0,0,1-9,9H206.12a9,9,0,0,1-9-9v-.75a9,9,0,0,1,9-9h57.76a9,9,0,0,1,9,9Z"/><path class="cls-2" d="M178.75,302.3a9,9,0,0,1-9,9h-19.5a9,9,0,0,1-9-9v-.75a9,9,0,0,1,9-9h19.5a9,9,0,0,1,9,9Z"/><path class="cls-2" d="M272.88,302.3a9,9,0,0,1-9,9H206.12a9,9,0,0,1-9-9v-.75a9,9,0,0,1,9-9h57.76a9,9,0,0,1,9,9Z"/><path class="cls-2" d="M286.75,147.28a9,9,0,0,1-9,9H215.5a9,9,0,0,1-9-9v-.75a9,9,0,0,1,9-9h62.25a9,9,0,0,1,9,9Z"/><path class="cls-2" d="M347.5,147.28a9,9,0,0,1-9,9h-24a9,9,0,0,1-9-9v-.75a9,9,0,0,1,9-9h24a9,9,0,0,1,9,9Z"/><path class="cls-2" d="M286.75,353.47a9,9,0,0,1-9,9H215.5a9,9,0,0,1-9-9v-.75a9,9,0,0,1,9-9h62.25a9,9,0,0,1,9,9Z"/><path class="cls-2" d="M347.5,353.47a9,9,0,0,1-9,9h-24a9,9,0,0,1-9-9v-.75a9,9,0,0,1,9-9h24a9,9,0,0,1,9,9Z"/></g></g></svg>